<svg version="1.1" id="Layer_1" xmlns="http://www.w3.org/2000/svg" xmlns:xlink="http://www.w3.org/1999/xlink" x="0px" y="0px"
	 width="100%" viewBox="0 0 512 512" enable-background="new 0 0 512 512" xml:space="preserve">
<path fill="#000000" opacity="1.000000" stroke="none" 
	d="
M404.000000,513.000000 
	C370.312439,513.000000 336.624878,513.000000 302.149170,512.729980 
	C310.138184,507.225708 314.221375,499.823273 313.111816,489.343933 
	C312.346039,482.111694 304.235046,473.222717 296.939880,473.035492 
	C291.965088,472.907806 286.981781,473.111389 281.538757,473.091797 
	C272.717377,473.066650 264.359528,473.116547 255.538147,473.091553 
	C247.382263,473.066650 239.689865,473.116577 231.534302,473.091644 
	C214.382904,473.066803 197.694717,473.116821 180.542480,473.092041 
	C171.386551,473.067047 162.694641,473.116852 153.539093,473.091949 
	C145.051407,473.066986 137.027359,473.116791 128.539627,473.091919 
	C120.718330,473.066742 113.360741,473.116241 105.539490,473.091370 
	C98.383949,473.066864 91.692078,473.116699 84.561180,473.091858 
	C79.603928,473.621704 81.041740,470.225891 81.040764,468.144958 
	C80.993782,367.432159 80.999695,266.719360 80.999687,166.006531 
	C80.999687,164.394089 80.999695,162.781647 80.999695,161.142548 
	C83.703506,161.023132 85.851212,160.928268 88.462364,160.908386 
	C97.283897,160.933258 105.641983,160.883179 114.447433,160.908188 
	C116.824066,160.983276 118.753326,160.983276 121.000000,160.983276 
	C121.000000,163.121765 121.000000,164.754547 121.000000,166.387344 
	C120.999977,185.482452 120.988686,204.577576 121.004799,223.672668 
	C121.012596,232.908035 129.811005,241.273788 139.442490,240.907959 
	C151.303787,243.242462 161.932968,231.769852 161.287994,219.808960 
	C160.235855,200.296539 161.028137,180.684677 161.505676,161.063232 
	C170.646606,160.952225 179.324066,160.892746 188.464737,160.907928 
	C197.953812,160.932739 206.979645,160.882889 216.468536,160.907654 
	C234.618942,160.932602 252.306305,160.882935 270.457825,160.908020 
	C278.947418,160.933105 286.972870,160.883438 295.461853,160.908310 
	C304.282776,160.933197 312.640167,160.883560 321.461151,160.908386 
	C330.283112,160.933136 338.641541,160.883392 347.443054,160.907974 
	C349.484650,160.982285 351.083099,160.982285 353.000305,160.982285 
	C353.000305,163.095383 353.000275,164.730759 353.000275,166.366135 
	C353.000244,185.632324 353.202972,204.901810 352.889893,224.162903 
	C352.780823,230.872223 362.224884,241.889023 370.447998,240.907745 
	C371.892181,240.987823 372.888763,240.997757 373.885345,240.998642 
	C385.358124,241.008865 393.001007,233.313431 393.000885,221.753647 
	C393.000702,205.475540 393.000793,189.197418 393.000763,172.919312 
	C393.000763,168.980957 393.000763,165.042587 393.000763,161.146408 
	C395.025757,161.019684 396.514435,160.926498 398.466248,160.907745 
	C408.953735,160.932373 418.978088,160.882614 429.441589,160.907547 
	C434.402130,160.374664 432.957062,163.773651 432.959015,165.851669 
	C433.011536,221.612671 433.000824,277.373749 433.000763,333.134796 
	C433.000763,346.079437 440.932220,353.519562 454.417664,352.907837 
	C464.958466,353.002411 473.000244,344.941681 473.000427,334.765686 
	C473.001495,269.473358 473.002045,204.181030 472.999725,138.888702 
	C472.999390,128.636047 464.409607,120.630898 453.537262,121.091049 
	C445.050171,121.066048 437.026367,121.116608 428.539032,121.091568 
	C418.051392,121.066208 408.027252,121.116432 397.583679,121.091110 
	C393.431000,121.518433 391.644043,120.275566 391.893585,116.129784 
	C392.045227,113.609779 391.342682,110.984001 390.721649,108.480705 
	C386.803864,92.688538 381.221222,77.579025 371.969788,63.627033 
	C364.047485,51.649750 355.692657,40.508507 344.095123,32.300831 
	C344.095276,32.336475 344.163422,32.357365 344.216156,32.115795 
	C343.846039,31.636974 343.423218,31.399725 342.683899,31.021202 
	C333.699188,23.075613 323.807648,17.264738 312.875793,12.553647 
	C304.807800,9.539062 296.903717,6.852801 288.587006,4.091185 
	C286.026917,3.674848 283.843750,3.469385 281.752075,2.917169 
	C281.048370,2.731398 280.577362,1.664288 280.000000,0.999997 
	C357.626007,1.000000 435.252045,1.000000 512.939026,1.000000 
	C512.939026,171.666656 512.939026,342.333344 512.939026,513.000000 
	C482.905853,513.000000 452.921600,513.000000 422.149048,512.730835 
	C422.116577,511.893951 422.852020,511.296509 423.631378,510.763245 
	C429.931427,506.452606 433.609406,500.901215 433.072998,492.850189 
	C432.699097,487.237640 433.159607,481.573639 432.929352,475.945587 
	C432.825989,473.418823 433.835419,472.747040 436.462860,472.908417 
	C443.243622,472.989075 449.561066,473.024963 455.878113,472.992340 
	C461.491089,472.963379 465.492401,469.962646 469.048798,465.948486 
	C473.385773,461.053345 473.249084,455.211487 473.003326,449.289398 
	C472.689270,441.721649 464.502197,433.315765 456.932098,433.060486 
	C449.963623,432.825439 442.977631,433.110321 435.562073,433.089539 
	C434.416901,431.897339 433.129883,430.798706 433.096527,429.663300 
	C432.901825,423.035767 433.095184,416.397339 432.940704,409.767670 
	C432.897034,407.894135 432.490967,405.845306 431.627075,404.205658 
	C427.272552,395.941223 420.646088,391.668152 410.595642,393.091919 
	C402.233582,392.160248 392.205383,403.280365 392.857086,410.638550 
	C393.508453,417.993042 393.000031,425.450317 393.000031,433.166870 
	C390.286896,433.166870 388.144470,433.166870 385.538757,433.091675 
	C380.924011,433.011230 376.767944,432.886444 372.622742,433.044739 
	C370.052704,433.142853 367.251068,433.106049 364.980927,434.103149 
	C355.109619,438.438873 350.110657,448.761200 353.178955,459.168274 
	C355.311249,466.400543 362.928436,473.639679 371.072876,473.054535 
	C376.028992,472.698517 381.024323,472.888428 386.449463,472.907959 
	C388.823151,472.982819 390.749359,472.982819 393.000092,472.982819 
	C393.000092,479.571930 393.317200,485.693390 392.924225,491.768921 
	C392.362823,500.448608 395.588531,506.810944 403.126556,511.096191 
	C403.619232,511.376282 403.718018,512.349304 404.000000,513.000000 
z"/>
<path fill="#000000" opacity="1.000000" stroke="none" 
	d="
M52.000004,513.000000 
	C35.009346,513.000000 18.018692,513.000000 1.021030,513.000000 
	C1.014020,342.436523 1.014020,171.873016 1.014020,1.000000 
	C78.353951,1.000000 155.708313,1.000000 233.861221,1.329015 
	C231.069611,2.756784 227.479477,3.855538 223.485886,4.974703 
	C214.371948,8.294221 205.661469,11.593328 196.582413,14.944488 
	C182.456848,21.280506 170.643951,30.287777 159.641632,41.012318 
	C156.844727,43.971909 154.077271,46.595173 151.946793,49.661053 
	C147.094193,56.644180 142.554047,63.844444 137.565125,71.112236 
	C129.606827,86.167778 123.569290,101.574921 121.867714,118.430222 
	C121.772522,119.373070 120.104546,120.551193 118.951965,120.896317 
	C117.412369,121.357338 115.660675,121.110016 113.536644,121.092316 
	C104.715141,121.067360 96.357063,121.116974 87.535675,121.091972 
	C79.048004,121.067101 71.023651,121.116844 62.556854,121.092110 
	C48.108383,120.941078 40.999561,127.937675 40.999565,141.799179 
	C40.999569,258.740234 41.045464,375.681335 40.901043,492.622192 
	C40.890919,500.820709 43.936028,506.640930 50.637581,510.932587 
	C51.272606,511.339264 51.554279,512.297729 52.000004,513.000000 
z"/>
<path fill="#83D5FF" opacity="1.000000" stroke="none" 
	d="
M52.458073,513.000000 
	C51.554279,512.297729 51.272606,511.339264 50.637581,510.932587 
	C43.936028,506.640930 40.890919,500.820709 40.901043,492.622192 
	C41.045464,375.681335 40.999569,258.740234 40.999565,141.799179 
	C40.999561,127.937675 48.108383,120.941078 62.557053,121.550171 
	C62.999794,252.388474 62.999897,382.694244 63.000000,513.000000 
	C59.638714,513.000000 56.277424,513.000000 52.458073,513.000000 
z"/>
<path fill="#88D1FF" opacity="1.000000" stroke="none" 
	d="
M63.468578,513.000000 
	C62.999897,382.694244 62.999794,252.388474 62.999493,121.624649 
	C71.023651,121.116844 79.048004,121.067101 87.535950,121.550034 
	C87.999321,134.999619 87.999115,147.916519 87.998909,160.833420 
	C85.851212,160.928268 83.703506,161.023132 80.999695,161.142548 
	C80.999695,162.781647 80.999687,164.394089 80.999687,166.006531 
	C80.999695,266.719360 80.993782,367.432159 81.040764,468.144958 
	C81.041740,470.225891 79.603928,473.621704 84.561256,473.549927 
	C85.000229,487.055084 85.000114,500.027557 85.000000,513.000000 
	C77.979050,513.000000 70.958107,513.000000 63.468578,513.000000 
z"/>
<path fill="#DD8BFC" opacity="1.000000" stroke="none" 
	d="
M411.000946,393.167023 
	C420.646088,391.668152 427.272552,395.941223 431.627075,404.205658 
	C432.490967,405.845306 432.897034,407.894135 432.940704,409.767670 
	C433.095184,416.397339 432.901825,423.035767 433.096527,429.663300 
	C433.129883,430.798706 434.416901,431.897339 435.562012,433.547668 
	C435.999329,446.999512 435.999359,459.916687 435.999359,472.833862 
	C433.835419,472.747040 432.825989,473.418823 432.929352,475.945587 
	C433.159607,481.573639 432.699097,487.237640 433.072998,492.850189 
	C433.609406,500.901215 429.931427,506.452606 423.631378,510.763245 
	C422.852020,511.296509 422.116577,511.893951 421.680420,512.730835 
	C418.638702,513.000000 415.277435,513.000000 411.458069,512.531372 
	C411.000336,472.430786 411.000641,432.798920 411.000946,393.167023 
z"/>
<path fill="#D88FFD" opacity="1.000000" stroke="none" 
	d="
M410.595642,393.091919 
	C411.000641,432.798920 411.000336,472.430786 411.000000,512.531372 
	C408.958344,513.000000 406.916656,513.000000 404.437500,513.000000 
	C403.718018,512.349304 403.619232,511.376282 403.126556,511.096191 
	C395.588531,506.810944 392.362823,500.448608 392.924225,491.768921 
	C393.317200,485.693390 393.000092,479.571930 393.000092,472.982819 
	C390.749359,472.982819 388.823151,472.982819 386.449036,472.449921 
	C386.001465,459.000305 386.001770,446.083588 386.002045,433.166870 
	C388.144470,433.166870 390.286896,433.166870 393.000031,433.166870 
	C393.000031,425.450317 393.508453,417.993042 392.857086,410.638550 
	C392.205383,403.280365 402.233582,392.160248 410.595642,393.091919 
z"/>
<path fill="#AAB5FE" opacity="1.000000" stroke="none" 
	d="
M181.006516,473.166840 
	C197.694717,473.116821 214.382904,473.066803 231.534698,473.549713 
	C231.998840,487.055084 231.999420,500.027557 232.000000,513.000000 
	C215.312439,513.000000 198.624878,513.000000 181.469681,512.531372 
	C181.003525,499.097412 181.005020,486.132111 181.006516,473.166840 
z"/>
<path fill="#B1AFFE" opacity="1.000000" stroke="none" 
	d="
M223.889328,4.954293 
	C227.479477,3.855538 231.069611,2.756784 234.329880,1.329015 
	C241.687576,1.000000 249.375168,1.000000 257.531372,1.468657 
	C257.984283,14.994471 257.968597,28.051628 257.530823,41.070839 
	C255.550568,41.355618 253.997894,41.707855 252.433411,41.996166 
	C243.623047,43.619781 234.809845,45.228027 225.998154,46.382790 
	C225.999008,34.534958 226.112686,23.143778 225.904114,11.758502 
	C225.862350,9.478894 224.592773,7.221780 223.889328,4.954293 
z"/>
<path fill="#B9A8FD" opacity="1.000000" stroke="none" 
	d="
M257.952942,41.108784 
	C257.968597,28.051628 257.984283,14.994471 258.000000,1.468657 
	C265.020966,1.000000 272.041901,1.000000 279.531433,0.999997 
	C280.577362,1.664288 281.048370,2.731398 281.752075,2.917169 
	C283.843750,3.469385 286.026917,3.674848 288.516724,4.462875 
	C288.239380,8.094663 287.156860,11.268978 287.084808,14.466062 
	C286.847137,25.015556 286.974823,35.573284 286.557129,46.070244 
	C281.473663,44.996742 276.821960,43.827980 272.109528,43.008060 
	C267.422394,42.192539 262.674316,41.727509 257.952942,41.108784 
z"/>
<path fill="#C0A3FD" opacity="1.000000" stroke="none" 
	d="
M282.002289,473.166870 
	C286.981781,473.111389 291.965088,472.907806 296.939880,473.035492 
	C304.235046,473.222717 312.346039,482.111694 313.111816,489.343933 
	C314.221375,499.823273 310.138184,507.225708 301.680511,512.729980 
	C295.645599,513.000000 289.291199,513.000000 282.468750,512.531372 
	C282.001251,499.097412 282.001770,486.132141 282.002289,473.166870 
z"/>
<path fill="#A0BDFE" opacity="1.000000" stroke="none" 
	d="
M180.542480,473.092041 
	C181.005020,486.132111 181.003525,499.097412 181.001022,512.531372 
	C172.312439,513.000000 163.624863,513.000000 154.469025,512.531372 
	C154.001404,499.097351 154.002075,486.132019 154.002747,473.166687 
	C162.694641,473.116852 171.386551,473.067047 180.542480,473.092041 
z"/>
<path fill="#B9A8FD" opacity="1.000000" stroke="none" 
	d="
M281.538757,473.091797 
	C282.001770,486.132141 282.001251,499.097412 282.000366,512.531372 
	C273.645782,513.000000 265.291534,513.000000 256.468658,512.531372 
	C256.000549,499.097260 256.001099,486.131836 256.001648,473.166412 
	C264.359528,473.116547 272.717377,473.066650 281.538757,473.091797 
z"/>
<path fill="#9BC2FE" opacity="1.000000" stroke="none" 
	d="
M153.539093,473.091949 
	C154.002075,486.132019 154.001404,499.097351 154.000366,512.531372 
	C145.979095,513.000000 137.958191,513.000000 129.469193,512.531372 
	C129.001846,499.097321 129.002579,486.131958 129.003326,473.166595 
	C137.027359,473.116791 145.051407,473.066986 153.539093,473.091949 
z"/>
<path fill="#B1AFFE" opacity="1.000000" stroke="none" 
	d="
M255.538147,473.091553 
	C256.001099,486.131836 256.000549,499.097260 256.000000,512.531372 
	C248.312424,513.000000 240.624832,513.000000 232.468628,513.000000 
	C231.999420,500.027557 231.998840,487.055084 231.997879,473.624573 
	C239.689865,473.116577 247.382263,473.066650 255.538147,473.091553 
z"/>
<path fill="#95C6FE" opacity="1.000000" stroke="none" 
	d="
M128.539627,473.091919 
	C129.002579,486.131958 129.001846,499.097321 129.000549,512.531372 
	C121.645744,513.000000 114.291496,513.000000 106.469238,512.531372 
	C106.001877,499.097046 106.002510,486.131378 106.003143,473.165741 
	C113.360741,473.116241 120.718330,473.066742 128.539627,473.091919 
z"/>
<path fill="#8FCCFF" opacity="1.000000" stroke="none" 
	d="
M105.539490,473.091370 
	C106.002510,486.131378 106.001877,499.097046 106.000626,512.531372 
	C99.312355,513.000000 92.624710,513.000000 85.468536,513.000000 
	C85.000114,500.027557 85.000229,487.055084 85.000275,473.624573 
	C91.692078,473.116699 98.383949,473.066864 105.539490,473.091370 
z"/>
<path fill="#E386FC" opacity="1.000000" stroke="none" 
	d="
M454.000519,352.833374 
	C440.932220,353.519562 433.000763,346.079437 433.000763,333.134796 
	C433.000824,277.373749 433.011536,221.612671 432.959015,165.851669 
	C432.957062,163.773651 434.402130,160.374664 429.440979,160.449493 
	C429.001648,147.000214 429.002075,134.083694 429.002533,121.167160 
	C437.026367,121.116608 445.050171,121.066048 453.536987,121.549118 
	C454.000183,198.999619 454.000336,275.916504 454.000519,352.833374 
z"/>
<path fill="#E882FC" opacity="1.000000" stroke="none" 
	d="
M454.417664,352.907837 
	C454.000336,275.916504 454.000183,198.999619 454.000244,121.624672 
	C464.409607,120.630898 472.999390,128.636047 472.999725,138.888702 
	C473.002045,204.181030 473.001495,269.473358 473.000427,334.765686 
	C473.000244,344.941681 464.958466,353.002411 454.417664,352.907837 
z"/>
<path fill="#CE97FD" opacity="1.000000" stroke="none" 
	d="
M344.094971,32.265186 
	C355.692657,40.508507 364.047485,51.649750 371.694855,63.900429 
	C371.039459,67.398865 370.071014,70.298134 370.066345,73.198944 
	C369.976807,129.076996 370.000244,184.955200 370.000397,240.833389 
	C362.224884,241.889023 352.780823,230.872223 352.889893,224.162903 
	C353.202972,204.901810 353.000244,185.632324 353.000275,166.366135 
	C353.000275,164.730759 353.000305,163.095383 353.000305,160.982285 
	C351.083099,160.982285 349.484650,160.982285 347.442749,160.449890 
	C346.999390,147.000458 346.999451,134.083389 347.410126,121.092102 
	C349.951172,121.035004 351.774353,121.272064 350.495209,117.875061 
	C347.408295,109.676979 344.725647,101.326691 342.159729,92.724106 
	C342.626282,90.611534 342.970612,88.813049 342.975403,87.013664 
	C343.017944,71.031769 342.957367,55.049461 343.049255,39.067974 
	C343.062286,36.798450 343.730164,34.532688 344.094971,32.265186 
z"/>
<path fill="#9BC2FE" opacity="1.000000" stroke="none" 
	d="
M137.886948,70.956474 
	C142.554047,63.844444 147.094193,56.644180 151.946793,49.661053 
	C154.077271,46.595173 156.844727,43.971909 159.655426,41.447754 
	C160.325256,47.043629 160.939484,52.338600 160.955063,57.635334 
	C161.056564,92.128265 161.028122,126.621574 161.042206,161.114761 
	C161.028137,180.684677 160.235855,200.296539 161.287994,219.808960 
	C161.932968,231.769852 151.303787,243.242462 139.442352,240.449905 
	C139.000031,185.658646 139.012253,131.400040 138.953033,77.141518 
	C138.950775,75.079453 138.257965,73.018135 137.886948,70.956474 
z"/>
<path fill="#D492FD" opacity="1.000000" stroke="none" 
	d="
M370.447998,240.907745 
	C370.000244,184.955200 369.976807,129.076996 370.066345,73.198944 
	C370.071014,70.298134 371.039459,67.398865 371.834106,64.225487 
	C381.221222,77.579025 386.803864,92.688538 390.721649,108.480705 
	C391.342682,110.984001 392.045227,113.609779 391.893585,116.129784 
	C391.644043,120.275566 393.431000,121.518433 397.583099,121.549179 
	C398.002319,134.999649 398.002716,147.916489 398.003113,160.833344 
	C396.514435,160.926498 395.025757,161.019684 393.000763,161.146408 
	C393.000763,165.042587 393.000763,168.980957 393.000763,172.919312 
	C393.000793,189.197418 393.000702,205.475540 393.000885,221.753647 
	C393.001007,233.313431 385.358124,241.008865 373.885345,240.998642 
	C372.888763,240.997757 371.892181,240.987823 370.447998,240.907745 
z"/>
<path fill="#A0BDFE" opacity="1.000000" stroke="none" 
	d="
M161.505676,161.063232 
	C161.028122,126.621574 161.056564,92.128265 160.955063,57.635334 
	C160.939484,52.338600 160.325256,47.043629 159.974106,41.312401 
	C170.643951,30.287777 182.456848,21.280506 196.751892,15.334118 
	C197.525970,17.617682 197.956619,19.562651 197.966766,21.509813 
	C198.037323,35.046139 198.020599,48.582920 197.889099,62.428852 
	C197.278442,62.886913 196.695740,62.905746 196.359161,63.203136 
	C181.651382,76.199036 170.813766,91.763908 165.135574,110.684219 
	C164.158127,113.941223 163.625488,117.331726 162.775146,121.166733 
	C171.749954,121.166733 179.875916,121.166733 188.001709,121.624939 
	C188.001526,134.999847 188.001511,147.916565 188.001511,160.833267 
	C179.324066,160.892746 170.646606,160.952225 161.505676,161.063232 
z"/>
<path fill="#95C6FE" opacity="1.000000" stroke="none" 
	d="
M137.565125,71.112236 
	C138.257965,73.018135 138.950775,75.079453 138.953033,77.141518 
	C139.012253,131.400040 139.000031,185.658646 139.000183,240.375305 
	C129.811005,241.273788 121.012596,232.908035 121.004799,223.672668 
	C120.988686,204.577576 120.999977,185.482452 121.000000,166.387344 
	C121.000000,164.754547 121.000000,163.121765 121.000000,160.983276 
	C118.753326,160.983276 116.824066,160.983276 114.447411,160.450150 
	C114.000031,147.000320 114.000053,134.083603 114.000069,121.166901 
	C115.660675,121.110016 117.412369,121.357338 118.951965,120.896317 
	C120.104546,120.551193 121.772522,119.373070 121.867714,118.430222 
	C123.569290,101.574921 129.606827,86.167778 137.565125,71.112236 
z"/>
<path fill="#B1AFFE" opacity="1.000000" stroke="none" 
	d="
M269.993683,160.833282 
	C252.306305,160.882935 234.618942,160.932602 216.467529,160.449615 
	C216.004013,147.000320 216.004517,134.083649 216.467880,121.092354 
	C234.618500,121.067413 252.306259,121.117081 269.994659,121.624954 
	C269.994751,134.999863 269.994232,147.916580 269.993683,160.833282 
z"/>
<path fill="#C69EFD" opacity="1.000000" stroke="none" 
	d="
M344.095123,32.300831 
	C343.730164,34.532688 343.062286,36.798450 343.049255,39.067974 
	C342.957367,55.049461 343.017944,71.031769 342.975403,87.013664 
	C342.970612,88.813049 342.626282,90.611534 341.840912,92.572830 
	C334.410217,78.977669 324.140533,68.214340 312.126038,58.725452 
	C312.528809,56.388439 312.957947,54.443489 312.968719,52.496227 
	C313.041748,39.291744 313.026459,26.086781 313.039703,12.881971 
	C323.807648,17.264738 333.699188,23.075613 342.887756,31.404545 
	C343.659882,32.071892 343.911652,32.214630 344.163422,32.357365 
	C344.163422,32.357365 344.095276,32.336475 344.095123,32.300831 
z"/>
<path fill="#E386FC" opacity="1.000000" stroke="none" 
	d="
M436.462860,472.908417 
	C435.999359,459.916687 435.999329,446.999512 435.999329,433.624237 
	C442.977631,433.110321 449.963623,432.825439 456.932098,433.060486 
	C464.502197,433.315765 472.689270,441.721649 473.003326,449.289398 
	C473.249084,455.211487 473.385773,461.053345 469.048798,465.948486 
	C465.492401,469.962646 461.491089,472.963379 455.878113,472.992340 
	C449.561066,473.024963 443.243622,472.989075 436.462860,472.908417 
z"/>
<path fill="#DD8BFC" opacity="1.000000" stroke="none" 
	d="
M398.466248,160.907745 
	C398.002716,147.916489 398.002319,134.999649 398.002502,121.624725 
	C408.027252,121.116432 418.051392,121.066208 428.539032,121.091568 
	C429.002075,134.083694 429.001648,147.000214 429.001831,160.374786 
	C418.978088,160.882614 408.953735,160.932373 398.466248,160.907745 
z"/>
<path fill="#D492FD" opacity="1.000000" stroke="none" 
	d="
M385.538757,433.091675 
	C386.001770,446.083588 386.001465,459.000305 386.001617,472.375061 
	C381.024323,472.888428 376.028992,472.698517 371.072876,473.054535 
	C362.928436,473.639679 355.311249,466.400543 353.178955,459.168274 
	C350.110657,448.761200 355.109619,438.438873 364.980927,434.103149 
	C367.251068,433.106049 370.052704,433.142853 372.622742,433.044739 
	C376.767944,432.886444 380.924011,433.011230 385.538757,433.091675 
z"/>
<path fill="#C0A3FD" opacity="1.000000" stroke="none" 
	d="
M312.875793,12.553647 
	C313.026459,26.086781 313.041748,39.291744 312.968719,52.496227 
	C312.957947,54.443489 312.528809,56.388439 311.802368,58.584930 
	C303.195099,54.599548 295.078674,50.363697 286.962250,46.127850 
	C286.974823,35.573284 286.847137,25.015556 287.084808,14.466062 
	C287.156860,11.268978 288.239380,8.094663 288.929382,4.538230 
	C296.903717,6.852801 304.807800,9.539062 312.875793,12.553647 
z"/>
<path fill="#AAB5FE" opacity="1.000000" stroke="none" 
	d="
M216.005020,121.166969 
	C216.004517,134.083649 216.004013,147.000320 216.004486,160.375031 
	C206.979645,160.882889 197.953812,160.932739 188.464737,160.907928 
	C188.001511,147.916565 188.001526,134.999847 188.464905,121.550278 
	C197.953857,121.067268 206.979446,121.117119 216.005020,121.166969 
z"/>
<path fill="#C69EFD" opacity="1.000000" stroke="none" 
	d="
M346.999512,121.166336 
	C346.999451,134.083389 346.999390,147.000458 346.999634,160.375580 
	C338.641541,160.883392 330.283112,160.933136 321.461487,160.450302 
	C320.997894,147.000504 320.997467,134.083298 321.460876,121.091621 
	C330.282959,121.066887 338.641235,121.116615 346.999512,121.166336 
z"/>
<path fill="#C0A3FD" opacity="1.000000" stroke="none" 
	d="
M320.997070,121.166084 
	C320.997467,134.083298 320.997894,147.000504 320.997925,160.375824 
	C312.640167,160.883560 304.282776,160.933197 295.462036,160.450226 
	C294.998444,147.000473 294.998199,134.083359 295.461609,121.091705 
	C304.282562,121.066811 312.639801,121.116447 320.997070,121.166084 
z"/>
<path fill="#8FCCFF" opacity="1.000000" stroke="none" 
	d="
M113.536644,121.092316 
	C114.000053,134.083603 114.000031,147.000320 114.000038,160.375061 
	C105.641983,160.883179 97.283897,160.933258 88.462364,160.908386 
	C87.999115,147.916519 87.999321,134.999619 87.999260,121.624649 
	C96.357063,121.116974 104.715141,121.067360 113.536644,121.092316 
z"/>
<path fill="#B9A8FD" opacity="1.000000" stroke="none" 
	d="
M294.997925,121.166229 
	C294.998199,134.083359 294.998444,147.000473 294.998535,160.375687 
	C286.972870,160.883438 278.947418,160.933105 270.457825,160.908020 
	C269.994232,147.916580 269.994751,134.999863 270.458740,121.550194 
	C278.947449,121.066895 286.972687,121.116562 294.997925,121.166229 
z"/>
<path fill="#CE97FD" opacity="1.000000" stroke="none" 
	d="
M344.216156,32.115795 
	C343.911652,32.214630 343.659882,32.071892 343.204224,31.545818 
	C343.423218,31.399725 343.846039,31.636974 344.216156,32.115795 
z"/>
<path fill="#AAB5FE" opacity="1.000000" stroke="none" 
	d="
M198.031860,62.119553 
	C198.020599,48.582920 198.037323,35.046139 197.966766,21.509813 
	C197.956619,19.562651 197.525970,17.617682 197.120453,15.282066 
	C205.661469,11.593328 214.371948,8.294221 223.485886,4.974704 
	C224.592773,7.221780 225.862350,9.478894 225.904114,11.758502 
	C226.112686,23.143778 225.999008,34.534958 225.620285,46.458046 
	C216.171875,52.034538 207.101883,57.077045 198.031860,62.119553 
z"/>
<path fill="#000000" opacity="1.000000" stroke="none" 
	d="
M197.889099,62.428852 
	C207.101883,57.077045 216.171875,52.034538 225.619751,46.916771 
	C234.809845,45.228027 243.623047,43.619781 252.433411,41.996166 
	C253.997894,41.707855 255.550568,41.355618 257.530823,41.070839 
	C262.674316,41.727509 267.422394,42.192539 272.109528,43.008060 
	C276.821960,43.827980 281.473663,44.996742 286.557129,46.070244 
	C295.078674,50.363697 303.195099,54.599548 311.635193,58.975922 
	C324.140533,68.214340 334.410217,78.977669 341.561218,92.886497 
	C344.725647,101.326691 347.408295,109.676979 350.495209,117.875061 
	C351.774353,121.272064 349.951172,121.035004 347.410126,121.092102 
	C338.641235,121.116615 330.282959,121.066887 321.460876,121.091621 
	C312.639801,121.116447 304.282562,121.066811 295.461609,121.091705 
	C286.972687,121.116562 278.947449,121.066895 270.458130,121.091995 
	C252.306259,121.117081 234.618500,121.067413 216.467880,121.092354 
	C206.979446,121.117119 197.953857,121.067268 188.465088,121.092072 
	C179.875916,121.166733 171.749954,121.166733 162.775146,121.166733 
	C163.625488,117.331726 164.158127,113.941223 165.135574,110.684219 
	C170.813766,91.763908 181.651382,76.199036 196.359161,63.203136 
	C196.695740,62.905746 197.278442,62.886913 197.889099,62.428852 
z"/>
</svg>