<svg xmlns="http://www.w3.org/2000/svg" xmlns:xlink="http://www.w3.org/1999/xlink" viewBox="0,0,256,256" width="25px" height="25px"><g fill="#ffffff" fill-rule="nonzero" stroke="none" stroke-width="1" stroke-linecap="butt" stroke-linejoin="miter" stroke-miterlimit="10" stroke-dasharray="" stroke-dashoffset="0" font-family="none" font-weight="none" font-size="none" text-anchor="none" style="mix-blend-mode: normal"><g transform="scale(5.12,5.12)"><path d="M29,3c-0.9375,0 -1.83594,0.38281 -2.5,1c-0.66406,0.61719 -1.13672,1.43359 -1.5,2.40625c-0.64453,1.73438 -0.91406,3.98828 -0.96875,6.625c-4.79687,0.14844 -9.21094,1.39063 -12.75,3.4375c-1.06641,-1 -2.42578,-1.5 -3.78125,-1.5c-1.41016,0 -2.82422,0.54297 -3.90625,1.625c-2.16797,2.16797 -2.16797,5.64453 0,7.8125l0.25,0.25c-0.53125,1.37891 -0.84375,2.83203 -0.84375,4.34375c0,4.52734 2.56641,8.58594 6.5625,11.4375c3.99609,2.85156 9.44531,4.5625 15.4375,4.5625c5.99219,0 11.44141,-1.71094 15.4375,-4.5625c3.99609,-2.85156 6.5625,-6.91016 6.5625,-11.4375c0,-1.51172 -0.3125,-2.96484 -0.84375,-4.34375l0.25,-0.25c2.16797,-2.16797 2.16797,-5.64453 0,-7.8125c-1.08203,-1.08203 -2.49609,-1.625 -3.90625,-1.625c-1.35547,0 -2.71484,0.5 -3.78125,1.5c-3.52344,-2.03516 -7.91797,-3.27734 -12.6875,-3.4375c0.0625,-2.48437 0.33203,-4.5625 0.84375,-5.9375c0.28906,-0.77734 0.65234,-1.33594 1,-1.65625c0.34766,-0.32031 0.66406,-0.4375 1.125,-0.4375c0.46094,0 0.68359,0.125 1.03125,0.40625c0.34766,0.28125 0.75391,0.74219 1.28125,1.28125c0.94141,0.96484 2.38281,2.02734 4.78125,2.25c0.44531,2.30078 2.48047,4.0625 4.90625,4.0625c2.75,0 5,-2.25 5,-5c0,-2.75 -2.25,-5 -5,-5c-2.39453,0 -4.42578,1.71094 -4.90625,3.96875c-1.78125,-0.17187 -2.56641,-0.85937 -3.34375,-1.65625c-0.44922,-0.46094 -0.86328,-1 -1.4375,-1.46875c-0.57422,-0.46875 -1.375,-0.84375 -2.3125,-0.84375zM41,5c1.66797,0 3,1.33203 3,3c0,1.66797 -1.33203,3 -3,3c-1.66797,0 -3,-1.33203 -3,-3c0,-1.66797 1.33203,-3 3,-3zM25,15c5.60938,0 10.67578,1.61328 14.28125,4.1875c3.60547,2.57422 5.71875,6.03906 5.71875,9.8125c0,3.77344 -2.11328,7.23828 -5.71875,9.8125c-3.60547,2.57422 -8.67187,4.1875 -14.28125,4.1875c-5.60937,0 -10.67578,-1.61328 -14.28125,-4.1875c-3.60547,-2.57422 -5.71875,-6.03906 -5.71875,-9.8125c0,-3.77344 2.11328,-7.23828 5.71875,-9.8125c3.60547,-2.57422 8.67188,-4.1875 14.28125,-4.1875zM7.5,16.9375c0.70313,0 1.41406,0.21094 2.03125,0.65625c-2.00391,1.4375 -3.64453,3.17578 -4.78125,5.125c-1.16797,-1.42187 -1.08984,-3.37891 0.25,-4.71875c0.71484,-0.71484 1.60938,-1.0625 2.5,-1.0625zM42.5,16.9375c0.89063,0 1.78516,0.34766 2.5,1.0625c1.33984,1.33984 1.41797,3.29688 0.25,4.71875c-1.13672,-1.94922 -2.77734,-3.6875 -4.78125,-5.125c0.61719,-0.44531 1.32813,-0.65625 2.03125,-0.65625zM17,22c-2.19922,0 -4,1.80078 -4,4c0,2.19922 1.80078,4 4,4c2.19922,0 4,-1.80078 4,-4c0,-2.19922 -1.80078,-4 -4,-4zM33,22c-2.19922,0 -4,1.80078 -4,4c0,2.19922 1.80078,4 4,4c2.19922,0 4,-1.80078 4,-4c0,-2.19922 -1.80078,-4 -4,-4zM17,24c1.11719,0 2,0.88281 2,2c0,1.11719 -0.88281,2 -2,2c-1.11719,0 -2,-0.88281 -2,-2c0,-1.11719 0.88281,-2 2,-2zM33,24c1.11719,0 2,0.88281 2,2c0,1.11719 -0.88281,2 -2,2c-1.11719,0 -2,-0.88281 -2,-2c0,-1.11719 0.88281,-2 2,-2zM34.15625,33.84375c-0.05469,0.00781 -0.10547,0.01563 -0.15625,0.03125c-0.31641,0.0625 -0.58203,0.26953 -0.71875,0.5625c0,0 -0.52344,0.72656 -1.84375,1.5625c-1.32031,0.83594 -3.37891,1.6875 -6.4375,1.6875c-3.05859,0 -5.11719,-0.85156 -6.4375,-1.6875c-1.32031,-0.83594 -1.84375,-1.5625 -1.84375,-1.5625c-0.22656,-0.35547 -0.65234,-0.53125 -1.0625,-0.4375c-0.32422,0.08203 -0.58594,0.31641 -0.69922,0.63281c-0.11328,0.3125 -0.0625,0.66016 0.13672,0.92969c0,0 0.76953,1.10938 2.375,2.125c1.60547,1.01563 4.08984,2 7.53125,2c3.44141,0 5.92578,-0.98437 7.53125,-2c1.60547,-1.01562 2.375,-2.125 2.375,-2.125c0.30078,-0.28906 0.39063,-0.73828 0.22266,-1.12109c-0.16797,-0.38281 -0.55469,-0.62109 -0.97266,-0.59766z"></path></g></g></svg>