<svg version="1.1" id="Layer_1" xmlns="http://www.w3.org/2000/svg" xmlns:xlink="http://www.w3.org/1999/xlink" x="0px" y="0px"
	 width="100%" viewBox="0 0 1024 1024" enable-background="new 0 0 1024 1024" xml:space="preserve">
<path fill="#000000" opacity="1.000000" stroke="none" 
	d="
M653.000000,1025.000000 
	C435.333344,1025.000000 218.166672,1025.000000 1.000000,1025.000000 
	C1.000000,683.666687 1.000000,342.333344 1.000000,1.000000 
	C342.333344,1.000000 683.666687,1.000000 1025.000000,1.000000 
	C1025.000000,342.333344 1025.000000,683.666687 1025.000000,1025.000000 
	C901.166687,1025.000000 777.333313,1025.000000 653.000000,1025.000000 
M694.499939,802.192078 
	C728.371948,802.192078 762.243958,802.192078 797.100220,802.192078 
	C720.061829,690.008484 643.680054,578.781006 567.081299,467.237549 
	C637.451660,385.384247 707.766846,303.595215 778.698425,221.089096 
	C762.631958,221.089096 747.820618,221.196289 733.013062,221.007355 
	C729.664795,220.964630 727.601868,222.107101 725.468384,224.592773 
	C666.380615,293.436371 607.211853,362.210510 548.049683,430.990265 
	C547.032043,432.173279 545.930237,433.283875 544.836548,434.461884 
	C544.176880,433.742096 543.918701,433.519928 543.732239,433.248505 
	C496.229889,364.089722 448.705750,294.945862 401.315674,225.710220 
	C398.995087,222.319931 396.707733,220.966751 392.516785,220.979843 
	C339.858887,221.144455 287.200317,221.088287 234.541916,221.088638 
	C232.940872,221.088654 231.339844,221.088654 228.821365,221.088654 
	C233.214844,227.500183 237.121246,233.211044 241.037735,238.914963 
	C309.911133,339.220856 378.771362,439.535767 447.725586,539.786011 
	C449.921356,542.978455 450.325928,544.865845 447.490356,548.153992 
	C376.039520,631.009949 304.737701,713.994446 233.415054,796.960938 
	C232.167511,798.412231 230.986618,799.920776 229.575317,801.646362 
	C230.535431,801.930725 230.968262,802.170471 231.401505,802.171143 
	C246.399017,802.195129 261.398102,802.296753 276.392059,802.067444 
	C278.158539,802.040405 280.338196,800.558289 281.584991,799.111755 
	C335.807831,736.199951 389.946503,673.215454 444.096436,610.240784 
	C453.606049,599.181458 463.120117,588.125916 472.954407,576.693970 
	C474.152588,578.431946 475.075256,579.766235 475.993774,581.103333 
	C525.667236,653.409485 575.362854,725.700378 624.937195,798.074402 
	C627.079956,801.202698 629.241028,802.325012 633.010376,802.286804 
	C653.171814,802.082153 673.336365,802.191406 694.499939,802.192078 
z"/>
<path fill="#FCFCFC" opacity="1.000000" stroke="none" 
	d="
M693.999878,802.192078 
	C673.336365,802.191406 653.171814,802.082153 633.010376,802.286804 
	C629.241028,802.325012 627.079956,801.202698 624.937195,798.074402 
	C575.362854,725.700378 525.667236,653.409485 475.993774,581.103333 
	C475.075256,579.766235 474.152588,578.431946 472.954407,576.693970 
	C463.120117,588.125916 453.606049,599.181458 444.096436,610.240784 
	C389.946503,673.215454 335.807831,736.199951 281.584991,799.111755 
	C280.338196,800.558289 278.158539,802.040405 276.392059,802.067444 
	C261.398102,802.296753 246.399017,802.195129 231.401505,802.171143 
	C230.968262,802.170471 230.535431,801.930725 229.575317,801.646362 
	C230.986618,799.920776 232.167511,798.412231 233.415054,796.960938 
	C304.737701,713.994446 376.039520,631.009949 447.490356,548.153992 
	C450.325928,544.865845 449.921356,542.978455 447.725586,539.786011 
	C378.771362,439.535767 309.911133,339.220856 241.037735,238.914963 
	C237.121246,233.211044 233.214844,227.500183 228.821365,221.088654 
	C231.339844,221.088654 232.940872,221.088654 234.541916,221.088638 
	C287.200317,221.088287 339.858887,221.144455 392.516785,220.979843 
	C396.707733,220.966751 398.995087,222.319931 401.315674,225.710220 
	C448.705750,294.945862 496.229889,364.089722 543.732239,433.248505 
	C543.918701,433.519928 544.176880,433.742096 544.836548,434.461884 
	C545.930237,433.283875 547.032043,432.173279 548.049683,430.990265 
	C607.211853,362.210510 666.380615,293.436371 725.468384,224.592773 
	C727.601868,222.107101 729.664795,220.964630 733.013062,221.007355 
	C747.820618,221.196289 762.631958,221.089096 778.698425,221.089096 
	C707.766846,303.595215 637.451660,385.384247 567.081299,467.237549 
	C643.680054,578.781006 720.061829,690.008484 797.100220,802.192078 
	C762.243958,802.192078 728.371948,802.192078 693.999878,802.192078 
M405.930359,304.580139 
	C396.212738,290.654480 386.434296,276.770569 376.830261,262.766998 
	C374.974915,260.061768 373.072021,258.840485 369.615295,258.869049 
	C346.954041,259.056061 324.290558,258.967224 301.627808,258.986786 
	C300.398987,258.987854 299.170319,259.153625 297.373230,259.283936 
	C298.651093,261.164001 299.546631,262.514252 300.474396,263.841919 
	C343.473083,325.373993 386.481781,386.899048 429.474091,448.435608 
	C502.599396,553.102661 575.727295,657.768005 648.766052,762.495422 
	C650.732849,765.315491 652.789124,766.235352 656.111023,766.215637 
	C678.773010,766.081116 701.436218,766.149414 724.098999,766.130859 
	C725.294312,766.129883 726.489502,765.934509 728.107239,765.792542 
	C726.554871,763.513123 725.366699,761.728821 724.139160,759.971985 
	C658.825500,666.493835 593.505493,573.020203 528.192932,479.541321 
	C487.579742,421.413513 446.977295,363.278229 405.930359,304.580139 
z"/>
<path fill="#020202" opacity="1.000000" stroke="none" 
	d="
M406.150177,304.863220 
	C446.977295,363.278229 487.579742,421.413513 528.192932,479.541321 
	C593.505493,573.020203 658.825500,666.493835 724.139160,759.971985 
	C725.366699,761.728821 726.554871,763.513123 728.107239,765.792542 
	C726.489502,765.934509 725.294312,766.129883 724.098999,766.130859 
	C701.436218,766.149414 678.773010,766.081116 656.111023,766.215637 
	C652.789124,766.235352 650.732849,765.315491 648.766052,762.495422 
	C575.727295,657.768005 502.599396,553.102661 429.474091,448.435608 
	C386.481781,386.899048 343.473083,325.373993 300.474396,263.841919 
	C299.546631,262.514252 298.651093,261.164001 297.373230,259.283936 
	C299.170319,259.153625 300.398987,258.987854 301.627808,258.986786 
	C324.290558,258.967224 346.954041,259.056061 369.615295,258.869049 
	C373.072021,258.840485 374.974915,260.061768 376.830261,262.766998 
	C386.434296,276.770569 396.212738,290.654480 406.150177,304.863220 
z"/>
</svg>